<svg class="gallow" width="353" height="581" viewBox="0 0 370 581" fill="none" xmlns="http://www.w3.org/2000/svg">
<rect x="176.337" y="34.6662" width="39" height="199.598" transform="rotate(45 176.337 34.6662)" fill="black" stroke="#FFFEFE" stroke-width="3"/>
<rect x="34.5" y="1.5" width="39" height="578" rx="3.5" fill="black" stroke="#FFFEFE" stroke-width="3"/>
<rect x="351.5" y="34.5" width="39" height="350" rx="3.5" transform="rotate(90 351.5 34.5)" fill="black" stroke="#FFFEFE" stroke-width="3"/>
<rect x="298" y="75" width="10" height="74" fill="black"/>
<g>
<circle class="body-part" cx="300" cy="195" r="48" fill="white" stroke="black" stroke-width="5"/>
<rect class="body-part" x="300" y="245" width="5" height="131" fill="black"/>
<rect class="body-part" x="408" y="45" width="5" rx="5" height="100" transform="rotate(39.64 63.7964 0)" fill="black"/>
<rect class="body-part" x="70" y="390" width="5" rx="5" height="100" transform="rotate(-39.6353 0 3.18951)" fill="black"/>
<rect class="body-part" x="484" y="134" width="5" rx="5" height="100" transform="rotate(39.64 63.7964 0)" fill="black"/>
<rect class="body-part" x="-5" y="479" width="5" rx="5" height="100" transform="rotate(-39.6353 0 3.18951)" fill="black"/>
</g>
</svg>
